<?xml version="1.0" encoding="UTF-8"?>
<svg id="Capa_2" data-name="Capa 2" xmlns="http://www.w3.org/2000/svg" viewBox="0 0 558.82 558.82">
  <defs>
    <style>
      .cls-1 {
        fill: #fff;
      }
    </style>
  </defs>
  <g id="Capa_1-2" data-name="Capa 1">
    <g>
      <path class="cls-1" d="m1.53,282.46c.84,76.73,63.73,138.26,140.46,137.42l-3.05-277.88C62.21,142.84.69,205.73,1.53,282.46Z"/>
      <path class="cls-1" d="m282.46,557.29c76.73-.84,138.26-63.73,137.42-140.46l-277.88,3.05c.84,76.73,63.73,138.26,140.46,137.42Z"/>
      <path class="cls-1" d="m0,143.52h0s138.94-1.52,138.94-1.52l-1.52-138.94C60.69,3.9-.83,66.79,0,143.52Z"/>
      <path class="cls-1" d="m143.52,558.82h0s-1.52-138.94-1.52-138.94l-138.94,1.52c.84,76.73,63.73,138.26,140.46,137.42Z"/>
      <path class="cls-1" d="m558.82,415.3h0s-138.94,1.52-138.94,1.52l1.52,138.94c76.73-.84,138.26-63.73,137.42-140.46Z"/>
      <path class="cls-1" d="m415.3,0h0s1.52,138.94,1.52,138.94l138.94-1.52C554.93,60.69,492.04-.83,415.3,0Z"/>
      <g>
        <path class="cls-1" d="m305.38,211.94c3.33,3.25,5.86,7.05,7.55,11.11,1.7,4.06,2.57,8.38,2.62,12.7.05,4.32-.73,8.66-2.34,12.75-1.61,4.09-4.05,7.95-7.31,11.27l-5.7,5.83c2.39.38,4.74,1.01,7.02,1.91,4.1,1.61,7.95,4.05,11.28,7.31,3.33,3.25,5.86,7.05,7.55,11.11.95,2.26,1.63,4.6,2.06,6.98l40.24-41.13c-3.82-14.24-10.92-27.12-20.45-37.79-10.36-11.59-23.58-20.56-38.52-25.82-2.04-.72-4.12-1.35-6.22-1.92l-16.13,16.48c2.4.38,4.78.99,7.08,1.89,4.1,1.61,7.95,4.05,11.28,7.31Z"/>
        <path class="cls-1" d="m256.07,213.96v-.06s30.01-30.66,30.01-30.66c-2.82-.23-5.68-.33-8.57-.3-19.28.21-37.07,6.26-51.81,16.45-14.74,10.19-26.38,24.53-33.25,41.29-4.58,11.17-7.05,23.41-6.91,36.27.03,2.91.2,5.78.49,8.61l64.33-65.75,5.72-5.85Z"/>
        <path class="cls-1" d="m416.83,138.95l1.43,130.09c-4.85-69-59.96-123.85-128.66-128.69l127.23-1.4C415.99,62.21,353.1.69,276.36,1.53c-76.73.84-138.26,63.73-137.42,140.46l127.77-1.4c-71.31,6.61-126.78,66.95-125.98,139.83.84,76.73,63.73,138.26,140.46,137.42,73.93-.81,133.72-59.22,137.24-132.12l1.44,131.1c76.73-.84,138.26-63.73,137.42-140.46-.84-76.73-63.73-138.26-140.46-137.42Zm-48.67,196c-11.38,17.25-27.6,31.02-46.78,39.39-12.78,5.57-26.88,8.73-41.68,8.89-7.67.08-15.17-.64-22.41-2.1-.62-.12-1.17-.24-1.64-.34h-.05s-.03-.02-.03-.02c-39.67-8.66-71.18-39.21-81.1-78.52-2.04-8.06-3.16-16.49-3.25-25.15-.25-22.2,6.29-42.95,17.67-60.19,11.38-17.25,27.6-31.02,46.78-39.38,12.78-5.57,26.88-8.73,41.68-8.89,25.76-.29,49.57,8.56,68.22,23.51,18.66,14.95,32.24,36.02,37.67,60.23,1.62,7.22,2.51,14.71,2.59,22.38.25,22.2-6.29,42.96-17.67,60.2Z"/>
        <path class="cls-1" d="m281.31,340.75l27.48-28.09c1.9-1.94,3.29-4.15,4.22-6.5.92-2.35,1.38-4.86,1.35-7.37-.03-2.5-.53-5-1.51-7.33-.98-2.33-2.42-4.51-4.36-6.41-1.94-1.9-4.15-3.29-6.5-4.22-2.35-.92-4.86-1.38-7.37-1.35-2.5.03-5,.53-7.33,1.51-2.33.98-4.51,2.42-6.41,4.36l-13.39,13.68-40.71,41.35-.53-20.21,22.86-22.74v-.06s14.15-14.47,14.15-14.47l1.9-1.94,6.91-7.09v.03s23.6-24.13,23.6-24.13c1.9-1.94,3.29-4.14,4.22-6.5.92-2.35,1.38-4.86,1.35-7.36-.03-2.51-.53-5-1.51-7.34-.98-2.33-2.42-4.51-4.36-6.41-1.94-1.9-4.15-3.29-6.5-4.22-2.35-.92-4.86-1.38-7.37-1.35s-5,.53-7.33,1.51c-2.33.98-4.51,2.42-6.41,4.36l-5.11,5.23.42,37.88-14.15,14.47-.42-37.87-59.1,60.4c8.73,29.28,31.52,52.48,60.44,61.85l-.33-29.66,14.16-13.89.41,37.48,17.22-17.6Z"/>
        <path class="cls-1" d="m324.65,316.91l-5.63,5.76-27.48,28.09-17.66,18.05c1.87.09,3.76.13,5.66.11,19.28-.21,37.07-6.26,51.81-16.45,14.74-10.19,26.38-24.53,33.25-41.29,4.58-11.17,7.05-23.42,6.91-36.28-.02-1.9-.1-3.79-.24-5.66l-46.63,47.66Z"/>
      </g>
    </g>
  </g>
</svg>