<?xml version="1.0" encoding="UTF-8"?>
<svg id="Capa_2" data-name="Capa 2" xmlns="http://www.w3.org/2000/svg" viewBox="0 0 974.07 232.52">
  <defs>
    <style>
      .cls-1 {
        fill: #fff;
      }
    </style>
  </defs>
  <g id="Capa_1-2" data-name="Capa 1">
    <g>
      <g>
        <path class="cls-1" d="m0,.83h21.08c11.01,0,14.08,5.8,14.08,14.33v13.49c0,7.46-3.2,10.89-6.63,12.19,3.43,1.31,7.7,4.02,7.7,12.91v19.06c0,9.35-4.15,16.1-14.21,16.1H0V.83Zm13.38,11.95v22.85h4.03c3.67,0,4.61-2.49,4.61-6.16v-11.13c0-3.67-.94-5.56-4.61-5.56h-4.03Zm0,35.98v27.71h4.03c4.26,0,5.21-2.02,5.21-5.92v-16.1c0-3.67-.94-5.69-5.21-5.69h-4.03Z"/>
        <path class="cls-1" d="m179.84,72.33h-9.82l-1.66,16.57h-11.95L167.18.83h15.86l11.48,88.07h-12.9l-1.78-16.57Zm-8.4-13.14h6.99l-3.55-32.55-3.43,32.55Z"/>
        <path class="cls-1" d="m328.91.83v74.45h16.33v13.62h-29.71V.83h13.38Z"/>
        <path class="cls-1" d="m489.46,72.33h-9.82l-1.66,16.57h-11.95L476.8.83h15.86l11.48,88.07h-12.9l-1.78-16.57Zm-8.4-13.14h6.99l-3.55-32.55-3.43,32.55Z"/>
        <path class="cls-1" d="m637.23.83l11.48,47.23V.83h12.19v88.07h-10.89l-12.79-50.66v50.66h-12.08V.83h12.08Z"/>
        <path class="cls-1" d="m806.65,50.54h13.14v20.36c0,9.47-3.2,19.06-15.98,19.06h-2.96c-13.61,0-16.46-9.7-16.46-18.59V17.63c0-8.99,3.91-17.63,15.98-17.63h3.07c14.68,0,16.34,9.7,16.34,18.34v15.75h-13.14v-15.52c0-3.79-1.19-5.8-4.5-5.8s-4.15,1.89-4.15,5.8v52.32c0,4.02,1.42,6.04,4.27,6.04,3.19,0,4.38-2.25,4.38-5.92v-20.48Z"/>
        <path class="cls-1" d="m973.36.83v12.78h-17.05v23.08h13.38v13.38h-13.38v25.44h17.76v13.38h-31.14V.83h30.43Z"/>
      </g>
      <g>
        <path class="cls-1" d="m152.67,143.39h21.08c11.01,0,14.08,5.8,14.08,14.33v13.49c0,7.46-3.2,10.89-6.63,12.19,3.43,1.31,7.69,4.02,7.69,12.91v19.06c0,9.35-4.15,16.1-14.21,16.1h-22.02v-88.07Zm13.38,11.95v22.85h4.02c3.67,0,4.61-2.49,4.61-6.16v-11.13c0-3.67-.94-5.56-4.61-5.56h-4.02Zm0,35.98v27.71h4.02c4.26,0,5.21-2.02,5.21-5.92v-16.1c0-3.67-.94-5.69-5.21-5.69h-4.02Z"/>
        <path class="cls-1" d="m348.15,211.81c0,12.31-4.15,20.71-17.05,20.71h-2.25c-12.78,0-17.28-8.4-17.28-20.71v-49.01c0-12.31,4.5-20.24,17.16-20.24h2.25c13.02,0,17.16,8.05,17.16,20.12v49.13Zm-13.62-49.72c0-4.5-1.54-6.75-4.61-6.75-3.43,0-4.74,2.13-4.74,6.75v50.66c0,3.79,1.07,6.75,4.86,6.75s4.5-2.96,4.5-6.75v-50.66Z"/>
        <path class="cls-1" d="m491.65,214.89h-9.82l-1.66,16.57h-11.95l10.77-88.07h15.86l11.48,88.07h-12.9l-1.78-16.57Zm-8.4-13.14h6.99l-3.55-32.55-3.43,32.55Z"/>
        <path class="cls-1" d="m640.72,231.46h-13.38v-88.07h21.67c9,0,13.38,3.67,13.38,13.61v15.62c0,7.34-3.43,10.3-5.8,11.25,2.96,1.31,5.8,3.55,5.8,9.59v30.9c0,3.67.71,5.21,1.3,6.51v.59h-13.26c-.6-.94-1.3-2.49-1.3-7.22v-26.52c0-3.91-.71-5.56-4.97-5.56h-3.43v39.3Zm0-51.85h3.55c3.67,0,4.86-2.36,4.86-6.27v-12.32c0-3.79-.71-5.68-4.86-5.68h-3.55v24.26Z"/>
        <path class="cls-1" d="m785.88,143.39h20.48c11.48,0,15.03,6.5,15.03,16.92v53.62c0,10.89-4.02,17.52-15.03,17.52h-20.48v-88.07Zm13.38,75.29h3.2c4.14,0,5.21-2.13,5.21-6.87v-49.6c0-5.1-1.3-6.87-4.62-6.87h-3.79v63.33Z"/>
      </g>
    </g>
  </g>
</svg>